<?xml version="1.0" standalone="no"?>
<!DOCTYPE svg PUBLIC "-//W3C//DTD SVG 20010904//EN"
 "http://www.w3.org/TR/2001/REC-SVG-20010904/DTD/svg10.dtd">
<svg version="1.0" xmlns="http://www.w3.org/2000/svg"
 width="512.000000pt" height="512.000000pt" viewBox="0 0 512.000000 512.000000"
 preserveAspectRatio="xMidYMid meet">

<g transform="translate(0.000000,512.000000) scale(0.100000,-0.100000)"
fill="#000000" stroke="none">
<path d="M2205 4948 c-27 -5 -86 -27 -131 -48 -194 -94 -314 -291 -314 -517
l0 -63 78 0 c107 0 218 30 311 84 101 59 164 76 280 76 79 0 105 4 146 24 51
23 108 78 120 115 6 19 14 21 96 21 l89 0 0 80 0 80 -89 0 -89 0 -12 30 c-17
42 -90 104 -138 118 -46 14 -274 14 -347 0z m330 -173 c30 -29 32 -74 6 -106
-18 -22 -29 -24 -143 -30 -140 -7 -212 -27 -318 -89 -67 -39 -137 -66 -147
-56 -11 10 56 136 96 179 44 48 135 101 197 116 22 5 94 9 162 10 118 1 124 0
147 -24z"/>
<path d="M2800 4397 l0 -83 -57 -24 c-116 -48 -207 -170 -220 -293 -6 -65 90
-803 114 -866 20 -55 74 -116 127 -144 58 -30 174 -30 232 0 53 28 107 89 127
144 24 63 120 801 114 866 -13 123 -104 245 -219 293 l-58 24 0 83 0 83 -80 0
-80 0 0 -83z m143 -248 c52 -14 113 -77 128 -131 9 -35 8 -71 -7 -190 l-18
-148 -83 0 -83 0 0 -80 0 -80 70 0 c52 0 70 -3 70 -14 0 -45 -42 -315 -52
-334 -14 -27 -57 -52 -88 -52 -31 0 -74 25 -88 52 -7 12 -32 168 -55 346 l-43
322 93 0 93 0 0 80 0 80 -95 0 c-71 0 -95 3 -95 13 0 28 58 104 91 119 68 31
100 35 162 17z"/>
<path d="M2000 4147 c-49 -16 -133 -102 -148 -153 -28 -94 -8 -169 63 -239 59
-60 101 -75 207 -75 103 0 158 21 211 80 90 100 90 220 0 320 -55 61 -108 80
-217 79 -45 -1 -97 -6 -116 -12z m215 -172 c16 -15 25 -36 25 -55 0 -19 -9
-40 -25 -55 -21 -22 -33 -25 -95 -25 -62 0 -74 3 -95 25 -16 15 -25 36 -25 55
0 19 9 40 25 55 21 22 33 25 95 25 62 0 74 -3 95 -25z"/>
<path d="M1053 3946 c-92 -30 -176 -106 -220 -201 -24 -51 -28 -73 -28 -145 0
-71 4 -94 27 -142 15 -32 40 -75 56 -95 24 -30 31 -52 36 -106 8 -86 33 -152
82 -218 41 -56 134 -123 194 -139 36 -10 38 -12 44 -63 14 -106 77 -196 170
-245 43 -22 64 -27 131 -27 107 0 155 23 256 122 l80 77 127 -127 c70 -70 132
-127 137 -127 5 0 33 24 62 52 l53 53 -132 132 -133 133 77 77 c105 108 123
144 123 258 0 74 -4 97 -23 132 -52 99 -139 159 -246 170 -42 4 -56 10 -56 22
0 61 -103 198 -185 246 -52 30 -143 55 -203 55 -35 0 -52 6 -80 31 -63 55
-137 83 -227 86 -47 2 -97 -3 -122 -11z m184 -157 c15 -5 51 -32 78 -59 l50
-48 96 -4 c86 -3 102 -7 145 -34 30 -18 60 -48 79 -78 25 -42 31 -62 34 -128
l3 -78 102 0 c117 0 157 -14 194 -70 20 -29 23 -44 20 -88 -5 -51 -8 -57 -81
-130 l-77 -77 -130 130 -130 130 -57 -58 -58 -57 130 -130 130 -130 -65 -66
c-98 -99 -142 -114 -219 -74 -60 30 -81 83 -81 203 l0 97 -62 0 c-160 0 -258
110 -258 288 0 63 -1 65 -50 119 -56 61 -75 114 -66 183 16 121 156 203 273
159z"/>
<path d="M3520 3827 c-49 -16 -133 -102 -148 -153 -28 -94 -8 -169 63 -239 59
-60 101 -75 207 -75 103 0 158 21 211 80 90 100 90 220 0 320 -55 61 -108 80
-217 79 -45 -1 -97 -6 -116 -12z m215 -172 c16 -15 25 -36 25 -55 0 -19 -9
-40 -25 -55 -21 -22 -33 -25 -95 -25 -62 0 -74 3 -95 25 -16 15 -25 36 -25 55
0 19 9 40 25 55 21 22 33 25 95 25 62 0 74 -3 95 -25z"/>
<path d="M4135 3430 c-108 -22 -212 -77 -290 -155 -62 -62 -98 -121 -133 -214
-21 -56 -26 -89 -30 -214 -3 -101 -1 -161 8 -192 15 -53 76 -127 120 -145 l30
-12 0 -89 0 -89 80 0 80 0 0 89 c0 82 2 90 21 96 37 12 92 69 115 120 20 41
24 67 24 146 0 114 17 179 70 269 59 100 82 179 88 298 l5 102 -74 -1 c-41 -1
-92 -5 -114 -9z m10 -187 c-7 -32 -30 -79 -80 -173 -44 -82 -65 -175 -65 -290
0 -83 -2 -93 -25 -115 -32 -33 -78 -33 -112 1 -25 25 -25 26 -21 167 3 134 5
146 35 209 42 90 100 150 186 193 38 19 74 35 79 35 6 0 7 -12 3 -27z"/>
<path d="M2906 2744 c-70 -22 -149 -103 -170 -174 -9 -30 -16 -62 -16 -72 0
-14 -8 -18 -38 -18 -152 0 -282 -129 -282 -280 0 -151 130 -280 282 -280 l38
0 0 -160 0 -160 280 0 280 0 0 160 0 160 38 0 c152 0 282 129 282 280 0 151
-130 280 -282 280 -30 0 -38 4 -38 18 0 97 -93 217 -190 246 -65 20 -120 19
-184 0z m178 -183 c30 -30 31 -34 34 -135 l4 -104 124 -4 124 -3 32 -33 c28
-28 33 -39 33 -82 0 -43 -5 -54 -33 -82 l-32 -33 -370 0 -370 0 -32 33 c-28
28 -33 39 -33 82 0 43 5 54 33 82 l32 33 124 3 124 4 4 103 c3 94 5 106 28
130 33 36 57 46 104 41 27 -3 49 -14 70 -35z m36 -721 l0 -80 -120 0 -120 0 0
80 0 80 120 0 120 0 0 -80z"/>
<path d="M1746 2389 c-63 -15 -153 -69 -197 -116 -22 -24 -55 -74 -72 -111
-30 -63 -32 -73 -32 -184 0 -127 7 -146 69 -192 24 -18 42 -21 145 -21 115 0
118 1 193 37 91 45 147 103 191 196 30 63 32 73 32 184 0 102 -3 120 -21 144
-43 59 -68 69 -172 71 -53 1 -114 -2 -136 -8z m174 -205 c0 -87 -18 -133 -75
-189 -56 -57 -102 -75 -189 -75 l-56 0 0 56 c0 87 18 133 75 189 57 58 94 73
183 74 l62 1 0 -56z"/>
<path d="M845 2221 c-73 -34 -125 -111 -125 -186 0 -49 -20 -94 -73 -158 -64
-78 -82 -133 -82 -242 1 -76 5 -99 27 -147 34 -72 103 -142 176 -176 53 -25
67 -27 192 -27 125 0 139 2 192 27 73 34 142 104 176 176 22 48 27 71 27 147
0 109 -18 164 -82 242 -53 65 -73 109 -73 160 -1 76 -57 156 -132 187 -53 22
-172 21 -223 -3z m174 -150 c8 -5 18 -37 23 -71 10 -79 38 -142 89 -202 71
-84 87 -163 50 -243 -38 -83 -100 -115 -221 -115 -121 0 -183 32 -221 115 -37
80 -21 158 49 243 55 65 72 103 87 190 7 41 19 79 27 83 17 11 99 11 117 0z"/>
<path d="M4125 2154 c-11 -3 -45 -15 -75 -26 -50 -19 -100 -66 -550 -515
l-496 -493 -300 0 -301 0 -5 91 c-5 78 -11 100 -42 163 -43 88 -102 146 -194
189 -63 30 -73 32 -184 32 -127 0 -146 -7 -192 -69 -18 -24 -21 -42 -21 -145
0 -114 1 -119 36 -189 l35 -72 -318 0 -318 0 0 -480 0 -480 1360 0 1360 0 0
422 0 422 289 291 c338 341 345 350 346 500 0 82 -3 96 -32 156 -61 124 -175
200 -307 205 -39 2 -80 1 -91 -2z m153 -169 c101 -43 149 -160 107 -263 -11
-25 -110 -132 -298 -319 l-282 -283 -285 0 -285 0 420 421 c279 280 433 427
460 440 49 23 113 24 163 4z m-2204 -557 c55 -16 138 -99 154 -154 7 -23 12
-67 12 -98 l0 -56 -56 0 c-87 0 -133 18 -189 75 -57 56 -75 102 -75 189 l0 56
56 0 c31 0 75 -5 98 -12z m1686 -788 l0 -320 -1200 0 -1200 0 0 320 0 320
1200 0 1200 0 0 -320z"/>
<path d="M4080 1760 l0 -80 80 0 80 0 0 80 0 80 -80 0 -80 0 0 -80z"/>
<path d="M3760 1440 l0 -80 80 0 80 0 0 80 0 80 -80 0 -80 0 0 -80z"/>
</g>
</svg>
