<?xml version="1.0" standalone="no"?>
<!DOCTYPE svg PUBLIC "-//W3C//DTD SVG 20010904//EN"
 "http://www.w3.org/TR/2001/REC-SVG-20010904/DTD/svg10.dtd">
<svg version="1.0" xmlns="http://www.w3.org/2000/svg"
 width="512.000000pt" height="512.000000pt" viewBox="0 0 512.000000 512.000000"
 preserveAspectRatio="xMidYMid meet">

<g transform="translate(0.000000,512.000000) scale(0.100000,-0.100000)"
fill="#000000" stroke="none">
<path d="M4724 4896 c-96 -23 -185 -101 -220 -192 -18 -47 -19 -92 -19 -1189
l0 -1140 28 -57 c30 -61 113 -144 153 -154 l24 -6 0 -870 c0 -632 3 -882 12
-916 16 -66 87 -135 154 -151 99 -24 194 21 238 111 l26 54 -2 2139 -3 2140
-23 50 c-43 93 -131 163 -230 184 -63 13 -72 13 -138 -3z"/>
<path d="M54 4679 c-11 -6 -28 -23 -37 -39 -15 -26 -17 -94 -17 -762 0 -800 0
-793 58 -902 58 -110 217 -231 329 -252 l36 -7 -6 -156 c-8 -202 -24 -354
-102 -991 -79 -642 -95 -804 -98 -973 -2 -127 -1 -135 27 -195 73 -159 263
-231 418 -160 75 35 141 103 169 176 20 53 21 69 16 232 -6 181 -22 330 -106
1005 -27 220 -57 470 -66 555 -17 170 -36 490 -29 501 2 4 19 10 38 13 113 21
263 139 324 253 61 115 62 125 62 906 0 761 0 755 -51 791 -13 9 -39 16 -59
16 -20 0 -46 -7 -59 -16 -50 -36 -51 -42 -51 -637 0 -541 0 -555 -20 -580 -30
-38 -80 -52 -123 -33 -69 28 -67 12 -67 631 0 502 -2 560 -17 585 -34 58 -116
68 -164 21 l-29 -29 0 -562 c0 -624 1 -613 -65 -644 -41 -20 -49 -20 -90 0
-66 31 -65 20 -65 644 l0 562 -29 29 c-31 31 -84 38 -127 18z"/>
<path d="M2487 3830 c-370 -47 -691 -202 -947 -459 -141 -142 -222 -256 -305
-426 -72 -146 -105 -242 -137 -389 -19 -87 -22 -132 -22 -316 0 -242 13 -329
80 -521 315 -908 1352 -1337 2213 -914 154 76 275 161 400 280 400 385 575
938 465 1474 -98 476 -417 892 -852 1111 -124 62 -302 122 -432 145 -110 19
-364 28 -463 15z m379 -435 c282 -50 539 -201 716 -423 108 -136 176 -274 226
-461 22 -86 25 -115 25 -271 0 -156 -3 -185 -25 -271 -119 -443 -426 -754
-857 -866 -132 -34 -337 -42 -477 -19 -463 79 -828 416 -945 873 -126 495 97
1028 541 1292 120 72 302 136 435 154 77 10 280 6 361 -8z"/>
<path d="M2499 3185 c-362 -69 -646 -324 -755 -681 -26 -83 -28 -101 -28 -264
0 -162 2 -182 27 -263 112 -364 396 -618 766 -682 424 -75 853 155 1033 553
81 179 105 419 60 605 -87 356 -351 627 -699 718 -103 27 -300 34 -404 14z"/>
</g>
</svg>
