<?xml version="1.0" standalone="no"?>
<!DOCTYPE svg PUBLIC "-//W3C//DTD SVG 20010904//EN"
 "http://www.w3.org/TR/2001/REC-SVG-20010904/DTD/svg10.dtd">
<svg version="1.0" xmlns="http://www.w3.org/2000/svg"
 width="512.000000pt" height="512.000000pt" viewBox="0 0 512.000000 512.000000"
 preserveAspectRatio="xMidYMid meet">

<g transform="translate(0.000000,512.000000) scale(0.100000,-0.100000)"
fill="#000000" stroke="none">
<path d="M943 4385 c-154 -42 -261 -155 -293 -310 -7 -34 -10 -414 -8 -1145
l3 -1095 22 -54 c46 -112 122 -189 230 -233 l58 -23 816 -5 816 -5 358 -385
c197 -212 370 -391 386 -399 35 -18 81 -1 98 35 7 17 11 140 11 389 l0 364
363 3 c349 3 364 4 417 26 81 33 146 85 189 152 70 107 66 37 66 1265 0 1042
-1 1113 -18 1161 -39 113 -123 201 -234 246 l-58 23 -1585 2 c-1343 2 -1593 0
-1637 -12z m3212 -156 c54 -15 139 -100 154 -154 15 -56 15 -2174 0 -2230 -15
-54 -100 -139 -154 -154 -26 -7 -174 -11 -422 -11 -390 0 -422 -3 -440 -39 -4
-9 -10 -155 -13 -325 l-5 -309 -308 332 c-170 182 -309 332 -310 333 -1 2
-382 5 -847 8 -936 6 -869 1 -939 71 -71 71 -66 -26 -69 1187 -2 771 1 1106 9
1134 14 53 91 134 144 153 34 12 280 14 1600 15 1108 0 1572 -3 1600 -11z"/>
<path d="M2433 3765 c-111 -30 -205 -94 -274 -185 -111 -146 -117 -270 -14
-270 35 0 75 28 75 51 0 25 54 117 93 157 109 113 289 138 443 62 156 -76 222
-248 151 -392 -48 -99 -141 -166 -307 -222 -73 -24 -98 -38 -107 -56 -17 -33
-18 -428 -2 -464 16 -35 61 -52 98 -36 16 6 33 19 38 28 4 10 10 97 13 195 l5
178 80 32 c155 63 271 163 328 284 27 58 32 82 35 163 3 77 -1 106 -17 154
-56 158 -188 277 -358 321 -71 19 -211 18 -280 0z"/>
<path d="M2505 2295 c-50 -49 -15 -135 55 -135 41 0 80 39 80 80 0 41 -39 80
-80 80 -19 0 -40 -9 -55 -25z"/>
</g>
</svg>
